<svg fill="#000000" version="1.1" viewBox="144 144 512 512" width="200" height="200" xmlns="http://www.w3.org/2000/svg">
<g transform="scale(1.1, 1.5)">
<path  transform="translate(-35, -140)" y="1" fill="#8447ff" d="m612.54 273.34h-15.742c-4.168 0.03125-8.1562 1.6992-11.102 4.6445-2.9453 2.9492-4.6133 6.9336-4.6445 11.102v7.8281c-2.2188-9.5859-16.59-11.992-24.246-15.148-3.9141-1.4336-8.2383-1.2539-12.02 0.50391-3.7773 1.7578-6.707 4.9453-8.1328 8.8633l-72.738 199.79c-1.4102 3.9258-1.207 8.25 0.5625 12.027 1.7695 3.7773 4.9648 6.6992 8.8867 8.125l14.801 5.3516h-0.003907c3.9141 1.4336 8.2383 1.2539 12.02-0.50391s6.707-4.9453 8.1328-8.8633c0.078125-0.30859 72.727-199.72 72.738-200.02v194.59c0 4.1758 1.6562 8.1836 4.6094 11.137 2.9531 2.9531 6.9609 4.6094 11.137 4.6094h15.742c4.1758 0 8.1797-1.6562 11.133-4.6094s4.6133-6.9609 4.6133-11.137v-212.54c-0.015624-4.1719-1.6758-8.168-4.625-11.121-2.9531-2.9492-6.9492-4.6094-11.121-4.625z"></path>
<path  transform="translate(-35, -140)" fill="#cfb7ff" d="m236.81 509.02c43.617 30.688 109.12 18.934 137.29-16.762 9.125-8.793 12.98-21.727 10.152-34.086 3.5469-3.3984 5.5547-8.0938 5.5547-13.008 0-4.9102-2.0078-9.6094-5.5547-13.008 4.9492-3.5742 7.8789-9.3047 7.8789-15.41 0-6.1016-2.9297-11.836-7.8789-15.41l72.188-7.5586v0.003906c8.4648-0.97656 15.844-6.2109 19.555-13.883 3.7109-7.6719 3.2383-16.707-1.2539-23.949-4.4922-7.2422-12.379-11.68-20.898-11.762h-85.332l-20.859-31.25-0.003906-0.003906c-3-4.5117-7.4648-7.8516-12.641-9.457-5.1758-1.6055-10.746-1.3789-15.777 0.64063l-73.211 29.207-5.1953 2.0859v-0.003906c1.1367 2.7891 1.7266 5.7695 1.7344 8.7812v149.57-0.003906c-0.023438 5.6133-2.0625 11.031-5.7461 15.266z"></path> 
<path  transform="translate(-35, -140)" fill="#8447ff" d="m187.45 509.5h31.488c4.1758 0 8.1836-1.6602 11.133-4.6133 2.9531-2.9531 4.6133-6.957 4.6133-11.133v-149.57 0.003906c-0.015625-4.1719-1.6758-8.1719-4.625-11.121-2.9531-2.9492-6.9492-4.6133-11.121-4.625h-31.488c-4.1719 0.011719-8.168 1.6758-11.117 4.625-2.9492 2.9492-4.6133 6.9492-4.625 11.121v149.57-0.003906c-0.003907 4.1758 1.6562 8.1797 4.6094 11.133 2.9531 2.9531 6.957 4.6133 11.133 4.6133z"></path> 
</g>
</svg>
